<?xml version="1.0" encoding="utf-8"?>
<!-- Generator: Adobe Illustrator 24.0.2, SVG Export Plug-In . SVG Version: 6.00 Build 0)  -->
<svg version="1.0" id="Capa_1" xmlns="http://www.w3.org/2000/svg" xmlns:xlink="http://www.w3.org/1999/xlink" x="0px" y="0px"
	 viewBox="0 0 81 82" style="enable-background:new 0 0 81 82;" xml:space="preserve">
<style type="text/css">
	.st0{fill:#121212;}
	.st1{fill:#D4E761;stroke:#D4E761;stroke-width:0.4;stroke-linecap:round;stroke-linejoin:round;}
</style>
<path class="st0" d="M0,30.5c0-16.6,13.4-30,30-30h11c22.1,0,40,17.9,40,40v11c0,16.6-13.4,30-30,30H30c-16.6,0-30-13.4-30-30V30.5z
	"/>
<path class="st1" d="M22.4,23.8L22.4,23.8L22.4,23.8l6,2.6c-1.2,1.8-1.8,3.8-1.8,6c0,6.1,4.9,11.1,11.1,11.1
	c6.1,0,11.1-4.9,11.1-11.1c0-2.1-0.6-4.2-1.7-5.9l4.9-2.3v10l-1.6,3.5l0,0l0,0c-0.1,0.3-0.1,0.7,0.1,0.9c0.2,0.3,0.5,0.5,0.9,0.5
	h3.1c0.3,0,0.7-0.1,0.8-0.5c0.2-0.3,0.2-0.6,0.1-0.9l0,0l-1.4-3.5v-11c0-0.2,0-0.5-0.1-0.7c-0.1-0.2-0.4-0.4-0.8-0.6c0,0,0,0,0,0
	c0,0-0.1,0-0.2-0.1c-0.1-0.1-0.3-0.1-0.5-0.2c-0.4-0.2-1-0.4-1.7-0.7c-1.4-0.6-3.2-1.4-5.1-2.2c-1.8-0.8-3.7-1.6-5-2.2l-1.7-0.7
	l-0.5-0.2l-0.1-0.1l0,0l0,0c-0.3-0.1-0.5-0.1-0.8,0L22.4,22c-0.3,0.1-0.6,0.5-0.6,0.9C21.8,23.3,22,23.6,22.4,23.8z M46.6,32.4
	c0,5-4.1,9.1-9.1,9.1c-5,0-9.1-4.1-9.1-9.1c0-1.9,0.6-3.6,1.6-5.2l7.1,3.2c0.1,0.1,0.3,0.1,0.4,0.1c0,0,0,0,0,0c0,0,0,0,0,0
	c0.1,0,0.2,0,0.4-0.1l7-3.1C46.1,28.8,46.6,30.6,46.6,32.4z M52.8,37L52.8,37L52.8,37L52.8,37z M25.2,22.9l12.4-5.5l12.4,5.5
	l-12.4,5.5L25.2,22.9z"/>
<path class="st1" d="M37.9,45c-10.5,0-19,8.5-19,19c0,0.5,0.5,1,1,1h36.1c0.5,0,1-0.5,1-1C56.9,53.5,48.4,45,37.9,45z M54.9,63h-34
	c0.5-8.9,7.9-16,17-16C47,47,54.4,54.1,54.9,63z"/>
</svg>
