<?xml version="1.0" encoding="utf-8"?>
<!-- Generator: Adobe Illustrator 24.0.2, SVG Export Plug-In . SVG Version: 6.00 Build 0)  -->
<svg version="1.1" id="Capa_1" xmlns="http://www.w3.org/2000/svg" xmlns:xlink="http://www.w3.org/1999/xlink" x="0px" y="0px"
	 viewBox="0 0 592 137" style="enable-background:new 0 0 592 137;" xml:space="preserve">
<style type="text/css">
	.st0{fill:#FFFFFF;stroke:#FFFFFF;stroke-miterlimit:10;}
	.st1{fill:#D4E761;stroke:#D4E761;stroke-width:2;stroke-miterlimit:10;}
	.st2{fill:none;stroke:#D4E761;stroke-width:5;stroke-linecap:round;stroke-linejoin:round;stroke-miterlimit:10;}
	.st3{fill:none;stroke:#D4E761;stroke-width:4;stroke-linecap:round;stroke-linejoin:round;stroke-miterlimit:10;}
</style>
<g>
	<path class="st0" d="M111.3,88.7h27.2v15.6H90.9V19.9h20.4V88.7z"/>
	<path class="st0" d="M210.7,74.7h-46.2c0.2,5,1.5,8.6,3.8,10.8c2.3,2.2,5.3,3.3,8.8,3.3c3,0,5.5-0.8,7.5-2.3c2-1.5,3.3-3.5,3.9-5.9
		h21.6c-0.9,4.7-2.8,8.9-5.7,12.6c-2.9,3.7-6.7,6.6-11.2,8.7c-4.5,2.1-9.6,3.2-15.2,3.2c-6.5,0-12.3-1.4-17.4-4.1
		c-5.1-2.7-9-6.7-11.9-11.9c-2.9-5.2-4.3-11.2-4.3-18.2c0-7,1.4-13.1,4.2-18.2c2.8-5.1,6.8-9.1,11.9-11.8c5.1-2.7,10.9-4.1,17.4-4.1
		c6.6,0,12.4,1.4,17.4,4.1c5,2.7,8.9,6.5,11.6,11.4c2.7,4.9,4.1,10.5,4.1,16.9C211.3,70.9,211.1,72.7,210.7,74.7z M187.1,56.2
		c-2.4-2.2-5.4-3.3-9-3.3c-3.7,0-6.9,1.1-9.3,3.3c-2.5,2.2-3.9,5.5-4.2,9.8h26C190.7,61.7,189.5,58.4,187.1,56.2z"/>
	<path class="st0" d="M260.4,40.3c3.7,2.3,6.4,5.5,8.1,9.4V37.7h20.3v66.7h-20.3V92.3c-1.8,4-4.5,7.1-8.1,9.4
		c-3.7,2.3-8,3.5-13.1,3.5c-5.5,0-10.4-1.4-14.8-4.1c-4.3-2.7-7.8-6.7-10.3-11.9c-2.5-5.2-3.8-11.2-3.8-18.2c0-7,1.3-13.1,3.8-18.2
		c2.5-5.1,5.9-9.1,10.3-11.8c4.3-2.7,9.3-4.1,14.8-4.1C252.3,36.8,256.7,38,260.4,40.3z M243.2,59c-2.7,2.9-4,6.8-4,11.9
		c0,5.1,1.3,9.1,4,11.9c2.7,2.9,6.2,4.3,10.6,4.3c4.3,0,7.8-1.5,10.6-4.4c2.7-2.9,4.1-6.9,4.1-11.8c0-5-1.4-9-4.1-11.9
		c-2.7-2.9-6.3-4.4-10.6-4.4C249.4,54.7,245.9,56.2,243.2,59z"/>
	<path class="st0" d="M333.2,40.5c4-2.4,8.4-3.6,13.1-3.6v21.9h-5.9c-5.4,0-9.6,1.2-12.6,3.5c-3,2.3-4.5,6.2-4.5,11.7v30.3h-20.4
		V37.7h20.4v12.5C325.9,46.1,329.1,42.9,333.2,40.5z"/>
	<path class="st0" d="M415.4,44.6c4.5,5.1,6.7,12.1,6.7,21v38.7h-20.4V68c0-4.5-1.2-7.9-3.5-10.5c-2.4-2.5-5.5-3.8-9.4-3.8
		c-4.1,0-7.4,1.3-9.9,3.9c-2.4,2.6-3.6,6.4-3.6,11.2v35.4h-20.4V37.7h20.4v12.2c1.9-4,4.8-7.1,8.5-9.4c3.8-2.3,8.2-3.5,13.3-3.5
		C404.8,37,410.9,39.5,415.4,44.6z"/>
	<path class="st0" d="M437,11.2c2.2-2,5.2-3,8.8-3c3.7,0,6.6,1,8.8,3c2.2,2,3.3,4.6,3.3,7.7c0,3-1.1,5.6-3.3,7.6c-2.2,2-5.2,3-8.8,3
		c-3.7,0-6.6-1-8.8-3c-2.2-2-3.3-4.6-3.3-7.6C433.7,15.8,434.8,13.2,437,11.2z M456,37.7v66.7h-20.4V37.7H456z"/>
	<path class="st0" d="M502.8,28.6c-3.3,0-5.8,0.7-7.3,2.1c-1.5,1.4-2.3,3.7-2.5,6.9h12.1v17.2h-12.1v49.5h-20.4V54.9h-8V37.7h8V37
		c0-8.3,2.4-14.7,7.2-19.2c4.8-4.5,11.8-6.7,21-6.7c1.9,0,3.3,0,4.3,0.1v17.6L502.8,28.6z"/>
	<path class="st0" d="M529.5,37.7l16,40.9l14.9-40.9H583l-41.6,98.4H519l15.6-34.3l-28-64.1H529.5z"/>
</g>
<g>
	<g>
		<g>
			<polygon class="st1" points="34,96.6 28.7,93.1 22.4,96.6 22.4,82.5 34,82.5 			"/>
			<path class="st2" d="M12.3,85.5V35.4c0-6,4.9-10.9,10.9-10.9h37.3c6,0,10.9,4.9,10.9,10.9v35.4c0,6-4.9,10.9-10.9,10.9H28.4
				c-4.7,0-9.2,1.9-12.4,5.3l-3.3,3.7C12.7,90.7,12.3,87.4,12.3,85.5z"/>
			<path class="st2" d="M12.3,85.5v4.2c0,8,7.5,14.5,16.8,14.5H39c9.3,0,16.8-6.5,16.8-14.5l-11.1,0.5"/>
		</g>
		<path class="st3" d="M21.5,60V41.4c0-3.6,3-6.6,6.6-6.6h21.1"/>
	</g>
</g>
</svg>
